<mxfile host="drawio-plugin" modified="2023-09-26T18:46:22.720Z" agent="5.0 (Macintosh; Intel Mac OS X 10_15_7) AppleWebKit/537.36 (KHTML, like Gecko) Chrome/111.0.0.0 Safari/537.36" etag="8jMRuWsRykg-K-zbXyux" version="20.5.3" type="embed"><diagram id="R2lEEEUBdFMjLlhIrx00" name="Page-1"><mxGraphModel dx="1182" dy="2028" grid="1" gridSize="10" guides="1" tooltips="1" connect="1" arrows="1" fold="1" page="1" pageScale="1" pageWidth="850" pageHeight="1100" math="0" shadow="0" extFonts="Permanent Marker^https://fonts.googleapis.com/css?family=Permanent+Marker"><root><mxCell id="0"/><mxCell id="1" parent="0"/><mxCell id="C-vyLk0tnHw3VtMMgP7b-1" value="" style="edgeStyle=entityRelationEdgeStyle;endArrow=ERzeroToMany;startArrow=ERone;endFill=1;startFill=0;exitX=0;exitY=0.5;exitDx=0;exitDy=0;entryX=1;entryY=0.5;entryDx=0;entryDy=0;fontSize=14;" parent="1" source="C-vyLk0tnHw3VtMMgP7b-3" target="C-vyLk0tnHw3VtMMgP7b-24" edge="1"><mxGeometry width="100" height="100" relative="1" as="geometry"><mxPoint x="330" y="190" as="sourcePoint"/><mxPoint x="400" y="195.0000000000001" as="targetPoint"/></mxGeometry></mxCell><mxCell id="C-vyLk0tnHw3VtMMgP7b-2" value="users" style="shape=table;startSize=30;container=1;collapsible=1;childLayout=tableLayout;fixedRows=1;rowLines=0;fontStyle=1;align=center;resizeLast=1;fontSize=14;" parent="1" vertex="1"><mxGeometry x="450" y="120" width="250" height="120" as="geometry"/></mxCell><mxCell id="C-vyLk0tnHw3VtMMgP7b-3" value="" style="shape=partialRectangle;collapsible=0;dropTarget=0;pointerEvents=0;fillColor=none;points=[[0,0.5],[1,0.5]];portConstraint=eastwest;top=0;left=0;right=0;bottom=1;fontSize=14;" parent="C-vyLk0tnHw3VtMMgP7b-2" vertex="1"><mxGeometry y="30" width="250" height="30" as="geometry"/></mxCell><mxCell id="C-vyLk0tnHw3VtMMgP7b-4" value="FK" style="shape=partialRectangle;overflow=hidden;connectable=0;fillColor=none;top=0;left=0;bottom=0;right=0;fontStyle=1;fontSize=14;" parent="C-vyLk0tnHw3VtMMgP7b-3" vertex="1"><mxGeometry width="30" height="30" as="geometry"><mxRectangle width="30" height="30" as="alternateBounds"/></mxGeometry></mxCell><mxCell id="C-vyLk0tnHw3VtMMgP7b-5" value="user_id uuid NOT NULL " style="shape=partialRectangle;overflow=hidden;connectable=0;fillColor=none;top=0;left=0;bottom=0;right=0;align=left;spacingLeft=6;fontStyle=5;fontSize=14;" parent="C-vyLk0tnHw3VtMMgP7b-3" vertex="1"><mxGeometry x="30" width="220" height="30" as="geometry"><mxRectangle width="220" height="30" as="alternateBounds"/></mxGeometry></mxCell><mxCell id="2" style="shape=partialRectangle;collapsible=0;dropTarget=0;pointerEvents=0;fillColor=none;points=[[0,0.5],[1,0.5]];portConstraint=eastwest;top=0;left=0;right=0;bottom=1;fontSize=14;" parent="C-vyLk0tnHw3VtMMgP7b-2" vertex="1"><mxGeometry y="60" width="250" height="30" as="geometry"/></mxCell><mxCell id="3" style="shape=partialRectangle;overflow=hidden;connectable=0;fillColor=none;top=0;left=0;bottom=0;right=0;fontStyle=1;fontSize=14;" parent="2" vertex="1"><mxGeometry width="30" height="30" as="geometry"><mxRectangle width="30" height="30" as="alternateBounds"/></mxGeometry></mxCell><mxCell id="4" value="login varchar(50)" style="shape=partialRectangle;overflow=hidden;connectable=0;fillColor=none;top=0;left=0;bottom=0;right=0;align=left;spacingLeft=6;fontStyle=0;fontSize=14;" parent="2" vertex="1"><mxGeometry x="30" width="220" height="30" as="geometry"><mxRectangle width="220" height="30" as="alternateBounds"/></mxGeometry></mxCell><mxCell id="C-vyLk0tnHw3VtMMgP7b-6" value="" style="shape=partialRectangle;collapsible=0;dropTarget=0;pointerEvents=0;fillColor=none;points=[[0,0.5],[1,0.5]];portConstraint=eastwest;top=0;left=0;right=0;bottom=0;fontSize=14;" parent="C-vyLk0tnHw3VtMMgP7b-2" vertex="1"><mxGeometry y="90" width="250" height="30" as="geometry"/></mxCell><mxCell id="C-vyLk0tnHw3VtMMgP7b-7" value="" style="shape=partialRectangle;overflow=hidden;connectable=0;fillColor=none;top=0;left=0;bottom=0;right=0;fontSize=14;" parent="C-vyLk0tnHw3VtMMgP7b-6" vertex="1"><mxGeometry width="30" height="30" as="geometry"><mxRectangle width="30" height="30" as="alternateBounds"/></mxGeometry></mxCell><mxCell id="C-vyLk0tnHw3VtMMgP7b-8" value="created_at timestamp NOT NULL" style="shape=partialRectangle;overflow=hidden;connectable=0;fillColor=none;top=0;left=0;bottom=0;right=0;align=left;spacingLeft=6;fontSize=14;" parent="C-vyLk0tnHw3VtMMgP7b-6" vertex="1"><mxGeometry x="30" width="220" height="30" as="geometry"><mxRectangle width="220" height="30" as="alternateBounds"/></mxGeometry></mxCell><mxCell id="C-vyLk0tnHw3VtMMgP7b-13" value="texts" style="shape=table;startSize=30;container=1;collapsible=1;childLayout=tableLayout;fixedRows=1;rowLines=0;fontStyle=1;align=center;resizeLast=1;fontSize=14;" parent="1" vertex="1"><mxGeometry x="805" y="300" width="255" height="210" as="geometry"/></mxCell><mxCell id="47ZSBUL9UgBAziskp561-88" style="shape=partialRectangle;collapsible=0;dropTarget=0;pointerEvents=0;fillColor=none;points=[[0,0.5],[1,0.5]];portConstraint=eastwest;top=0;left=0;right=0;bottom=1;fontSize=14;" parent="C-vyLk0tnHw3VtMMgP7b-13" vertex="1"><mxGeometry y="30" width="255" height="30" as="geometry"/></mxCell><mxCell id="47ZSBUL9UgBAziskp561-89" value="PK" style="shape=partialRectangle;overflow=hidden;connectable=0;fillColor=none;top=0;left=0;bottom=0;right=0;fontStyle=1;fontSize=14;" parent="47ZSBUL9UgBAziskp561-88" vertex="1"><mxGeometry width="30" height="30" as="geometry"><mxRectangle width="30" height="30" as="alternateBounds"/></mxGeometry></mxCell><mxCell id="47ZSBUL9UgBAziskp561-90" value="text_id int NOT NULL" style="shape=partialRectangle;overflow=hidden;connectable=0;fillColor=none;top=0;left=0;bottom=0;right=0;align=left;spacingLeft=6;fontStyle=5;fontSize=14;" parent="47ZSBUL9UgBAziskp561-88" vertex="1"><mxGeometry x="30" width="225" height="30" as="geometry"><mxRectangle width="225" height="30" as="alternateBounds"/></mxGeometry></mxCell><mxCell id="C-vyLk0tnHw3VtMMgP7b-14" value="" style="shape=partialRectangle;collapsible=0;dropTarget=0;pointerEvents=0;fillColor=none;points=[[0,0.5],[1,0.5]];portConstraint=eastwest;top=0;left=0;right=0;bottom=1;fontSize=14;" parent="C-vyLk0tnHw3VtMMgP7b-13" vertex="1"><mxGeometry y="60" width="255" height="30" as="geometry"/></mxCell><mxCell id="C-vyLk0tnHw3VtMMgP7b-15" value="FK" style="shape=partialRectangle;overflow=hidden;connectable=0;fillColor=none;top=0;left=0;bottom=0;right=0;fontStyle=1;fontSize=14;" parent="C-vyLk0tnHw3VtMMgP7b-14" vertex="1"><mxGeometry width="30" height="30" as="geometry"><mxRectangle width="30" height="30" as="alternateBounds"/></mxGeometry></mxCell><mxCell id="C-vyLk0tnHw3VtMMgP7b-16" value="user_id uuid NOT NULL" style="shape=partialRectangle;overflow=hidden;connectable=0;fillColor=none;top=0;left=0;bottom=0;right=0;align=left;spacingLeft=6;fontStyle=5;fontSize=14;" parent="C-vyLk0tnHw3VtMMgP7b-14" vertex="1"><mxGeometry x="30" width="225" height="30" as="geometry"><mxRectangle width="225" height="30" as="alternateBounds"/></mxGeometry></mxCell><mxCell id="47ZSBUL9UgBAziskp561-47" style="shape=partialRectangle;collapsible=0;dropTarget=0;pointerEvents=0;fillColor=none;points=[[0,0.5],[1,0.5]];portConstraint=eastwest;top=0;left=0;right=0;bottom=1;fontSize=14;" parent="C-vyLk0tnHw3VtMMgP7b-13" vertex="1"><mxGeometry y="90" width="255" height="30" as="geometry"/></mxCell><mxCell id="47ZSBUL9UgBAziskp561-48" style="shape=partialRectangle;overflow=hidden;connectable=0;fillColor=none;top=0;left=0;bottom=0;right=0;fontStyle=1;fontSize=14;" parent="47ZSBUL9UgBAziskp561-47" vertex="1"><mxGeometry width="30" height="30" as="geometry"><mxRectangle width="30" height="30" as="alternateBounds"/></mxGeometry></mxCell><mxCell id="47ZSBUL9UgBAziskp561-49" value="name varchar(50) NOT NULL" style="shape=partialRectangle;overflow=hidden;connectable=0;fillColor=none;top=0;left=0;bottom=0;right=0;align=left;spacingLeft=6;fontStyle=0;fontSize=14;" parent="47ZSBUL9UgBAziskp561-47" vertex="1"><mxGeometry x="30" width="225" height="30" as="geometry"><mxRectangle width="225" height="30" as="alternateBounds"/></mxGeometry></mxCell><mxCell id="47ZSBUL9UgBAziskp561-53" style="shape=partialRectangle;collapsible=0;dropTarget=0;pointerEvents=0;fillColor=none;points=[[0,0.5],[1,0.5]];portConstraint=eastwest;top=0;left=0;right=0;bottom=1;fontSize=14;" parent="C-vyLk0tnHw3VtMMgP7b-13" vertex="1"><mxGeometry y="120" width="255" height="30" as="geometry"/></mxCell><mxCell id="47ZSBUL9UgBAziskp561-54" style="shape=partialRectangle;overflow=hidden;connectable=0;fillColor=none;top=0;left=0;bottom=0;right=0;fontStyle=1;fontSize=14;" parent="47ZSBUL9UgBAziskp561-53" vertex="1"><mxGeometry width="30" height="30" as="geometry"><mxRectangle width="30" height="30" as="alternateBounds"/></mxGeometry></mxCell><mxCell id="47ZSBUL9UgBAziskp561-55" value="hash_text text" style="shape=partialRectangle;overflow=hidden;connectable=0;fillColor=none;top=0;left=0;bottom=0;right=0;align=left;spacingLeft=6;fontStyle=0;fontSize=14;" parent="47ZSBUL9UgBAziskp561-53" vertex="1"><mxGeometry x="30" width="225" height="30" as="geometry"><mxRectangle width="225" height="30" as="alternateBounds"/></mxGeometry></mxCell><mxCell id="47ZSBUL9UgBAziskp561-130" style="shape=partialRectangle;collapsible=0;dropTarget=0;pointerEvents=0;fillColor=none;points=[[0,0.5],[1,0.5]];portConstraint=eastwest;top=0;left=0;right=0;bottom=1;fontSize=14;" parent="C-vyLk0tnHw3VtMMgP7b-13" vertex="1"><mxGeometry y="150" width="255" height="30" as="geometry"/></mxCell><mxCell id="47ZSBUL9UgBAziskp561-131" style="shape=partialRectangle;overflow=hidden;connectable=0;fillColor=none;top=0;left=0;bottom=0;right=0;fontStyle=1;fontSize=14;" parent="47ZSBUL9UgBAziskp561-130" vertex="1"><mxGeometry width="30" height="30" as="geometry"><mxRectangle width="30" height="30" as="alternateBounds"/></mxGeometry></mxCell><mxCell id="47ZSBUL9UgBAziskp561-132" value="updated_at timestamp NOT NULL" style="shape=partialRectangle;overflow=hidden;connectable=0;fillColor=none;top=0;left=0;bottom=0;right=0;align=left;spacingLeft=6;fontStyle=0;fontSize=14;" parent="47ZSBUL9UgBAziskp561-130" vertex="1"><mxGeometry x="30" width="225" height="30" as="geometry"><mxRectangle width="225" height="30" as="alternateBounds"/></mxGeometry></mxCell><mxCell id="C-vyLk0tnHw3VtMMgP7b-20" value="" style="shape=partialRectangle;collapsible=0;dropTarget=0;pointerEvents=0;fillColor=none;points=[[0,0.5],[1,0.5]];portConstraint=eastwest;top=0;left=0;right=0;bottom=0;fontSize=14;" parent="C-vyLk0tnHw3VtMMgP7b-13" vertex="1"><mxGeometry y="180" width="255" height="30" as="geometry"/></mxCell><mxCell id="C-vyLk0tnHw3VtMMgP7b-21" value="" style="shape=partialRectangle;overflow=hidden;connectable=0;fillColor=none;top=0;left=0;bottom=0;right=0;fontSize=14;" parent="C-vyLk0tnHw3VtMMgP7b-20" vertex="1"><mxGeometry width="30" height="30" as="geometry"><mxRectangle width="30" height="30" as="alternateBounds"/></mxGeometry></mxCell><mxCell id="C-vyLk0tnHw3VtMMgP7b-22" value=" meta jsonb" style="shape=partialRectangle;overflow=hidden;connectable=0;fillColor=none;top=0;left=0;bottom=0;right=0;align=left;spacingLeft=6;fontSize=14;" parent="C-vyLk0tnHw3VtMMgP7b-20" vertex="1"><mxGeometry x="30" width="225" height="30" as="geometry"><mxRectangle width="225" height="30" as="alternateBounds"/></mxGeometry></mxCell><mxCell id="C-vyLk0tnHw3VtMMgP7b-23" value="credentials" style="shape=table;startSize=30;container=1;collapsible=1;childLayout=tableLayout;fixedRows=1;rowLines=0;fontStyle=1;align=center;resizeLast=1;fontSize=14;" parent="1" vertex="1"><mxGeometry x="130" y="120" width="250" height="120" as="geometry"/></mxCell><mxCell id="C-vyLk0tnHw3VtMMgP7b-24" value="" style="shape=partialRectangle;collapsible=0;dropTarget=0;pointerEvents=0;fillColor=none;points=[[0,0.5],[1,0.5]];portConstraint=eastwest;top=0;left=0;right=0;bottom=1;fontSize=14;" parent="C-vyLk0tnHw3VtMMgP7b-23" vertex="1"><mxGeometry y="30" width="250" height="30" as="geometry"/></mxCell><mxCell id="C-vyLk0tnHw3VtMMgP7b-25" value="PK" style="shape=partialRectangle;overflow=hidden;connectable=0;fillColor=none;top=0;left=0;bottom=0;right=0;fontStyle=1;fontSize=14;" parent="C-vyLk0tnHw3VtMMgP7b-24" vertex="1"><mxGeometry width="30" height="30" as="geometry"><mxRectangle width="30" height="30" as="alternateBounds"/></mxGeometry></mxCell><mxCell id="C-vyLk0tnHw3VtMMgP7b-26" value="user_id uuid NOT NULL " style="shape=partialRectangle;overflow=hidden;connectable=0;fillColor=none;top=0;left=0;bottom=0;right=0;align=left;spacingLeft=6;fontStyle=5;fontSize=14;" parent="C-vyLk0tnHw3VtMMgP7b-24" vertex="1"><mxGeometry x="30" width="220" height="30" as="geometry"><mxRectangle width="220" height="30" as="alternateBounds"/></mxGeometry></mxCell><mxCell id="C-vyLk0tnHw3VtMMgP7b-27" value="" style="shape=partialRectangle;collapsible=0;dropTarget=0;pointerEvents=0;fillColor=none;points=[[0,0.5],[1,0.5]];portConstraint=eastwest;top=0;left=0;right=0;bottom=0;fontSize=14;" parent="C-vyLk0tnHw3VtMMgP7b-23" vertex="1"><mxGeometry y="60" width="250" height="30" as="geometry"/></mxCell><mxCell id="C-vyLk0tnHw3VtMMgP7b-28" value="" style="shape=partialRectangle;overflow=hidden;connectable=0;fillColor=none;top=0;left=0;bottom=0;right=0;fontSize=14;" parent="C-vyLk0tnHw3VtMMgP7b-27" vertex="1"><mxGeometry width="30" height="30" as="geometry"><mxRectangle width="30" height="30" as="alternateBounds"/></mxGeometry></mxCell><mxCell id="C-vyLk0tnHw3VtMMgP7b-29" value="login varchar(50) NOT NULL" style="shape=partialRectangle;overflow=hidden;connectable=0;fillColor=none;top=0;left=0;bottom=0;right=0;align=left;spacingLeft=6;fontSize=14;" parent="C-vyLk0tnHw3VtMMgP7b-27" vertex="1"><mxGeometry x="30" width="220" height="30" as="geometry"><mxRectangle width="220" height="30" as="alternateBounds"/></mxGeometry></mxCell><mxCell id="47ZSBUL9UgBAziskp561-11" style="shape=partialRectangle;collapsible=0;dropTarget=0;pointerEvents=0;fillColor=none;points=[[0,0.5],[1,0.5]];portConstraint=eastwest;top=0;left=0;right=0;bottom=0;fontSize=14;" parent="C-vyLk0tnHw3VtMMgP7b-23" vertex="1"><mxGeometry y="90" width="250" height="30" as="geometry"/></mxCell><mxCell id="47ZSBUL9UgBAziskp561-12" style="shape=partialRectangle;overflow=hidden;connectable=0;fillColor=none;top=0;left=0;bottom=0;right=0;fontSize=14;" parent="47ZSBUL9UgBAziskp561-11" vertex="1"><mxGeometry width="30" height="30" as="geometry"><mxRectangle width="30" height="30" as="alternateBounds"/></mxGeometry></mxCell><mxCell id="47ZSBUL9UgBAziskp561-13" style="shape=partialRectangle;overflow=hidden;connectable=0;fillColor=none;top=0;left=0;bottom=0;right=0;align=left;spacingLeft=6;fontSize=14;" parent="47ZSBUL9UgBAziskp561-11" vertex="1"><mxGeometry x="30" width="220" height="30" as="geometry"><mxRectangle width="220" height="30" as="alternateBounds"/></mxGeometry></mxCell><mxCell id="47ZSBUL9UgBAziskp561-1" value="" style="whiteSpace=wrap;html=1;fontSize=14;" parent="1" vertex="1"><mxGeometry x="160" y="210" width="220" height="30" as="geometry"/></mxCell><mxCell id="47ZSBUL9UgBAziskp561-2" value="hash_password text NOT NULL" style="shape=partialRectangle;overflow=hidden;connectable=0;fillColor=none;top=0;left=0;bottom=0;right=0;align=left;spacingLeft=6;fontSize=14;" parent="1" vertex="1"><mxGeometry x="160" y="210" width="220" height="30" as="geometry"><mxRectangle width="220" height="30" as="alternateBounds"/></mxGeometry></mxCell><mxCell id="47ZSBUL9UgBAziskp561-3" value="" style="shape=partialRectangle;overflow=hidden;connectable=0;top=0;left=0;bottom=0;right=0;strokeWidth=1;perimeterSpacing=1;fillColor=none;fontColor=#333333;strokeColor=#666666;labelBorderColor=none;dashed=1;dashPattern=1 2;fontSize=14;" parent="1" vertex="1"><mxGeometry x="130" y="210" width="30" height="30" as="geometry"><mxRectangle width="30" height="30" as="alternateBounds"/></mxGeometry></mxCell><mxCell id="47ZSBUL9UgBAziskp561-17" value="log_passes" style="shape=table;startSize=30;container=1;collapsible=1;childLayout=tableLayout;fixedRows=1;rowLines=0;fontStyle=1;align=center;resizeLast=1;fontSize=14;" parent="1" vertex="1"><mxGeometry x="450" y="300" width="260" height="240" as="geometry"/></mxCell><mxCell id="47ZSBUL9UgBAziskp561-85" style="shape=partialRectangle;collapsible=0;dropTarget=0;pointerEvents=0;fillColor=none;points=[[0,0.5],[1,0.5]];portConstraint=eastwest;top=0;left=0;right=0;bottom=1;fontSize=14;" parent="47ZSBUL9UgBAziskp561-17" vertex="1"><mxGeometry y="30" width="260" height="30" as="geometry"/></mxCell><mxCell id="47ZSBUL9UgBAziskp561-86" value="PK" style="shape=partialRectangle;overflow=hidden;connectable=0;fillColor=none;top=0;left=0;bottom=0;right=0;fontStyle=1;fontSize=14;" parent="47ZSBUL9UgBAziskp561-85" vertex="1"><mxGeometry width="30" height="30" as="geometry"><mxRectangle width="30" height="30" as="alternateBounds"/></mxGeometry></mxCell><mxCell id="47ZSBUL9UgBAziskp561-87" value="log_pass_id int NOT NULL" style="shape=partialRectangle;overflow=hidden;connectable=0;fillColor=none;top=0;left=0;bottom=0;right=0;align=left;spacingLeft=6;fontStyle=5;fontSize=14;" parent="47ZSBUL9UgBAziskp561-85" vertex="1"><mxGeometry x="30" width="230" height="30" as="geometry"><mxRectangle width="230" height="30" as="alternateBounds"/></mxGeometry></mxCell><mxCell id="47ZSBUL9UgBAziskp561-18" value="" style="shape=partialRectangle;collapsible=0;dropTarget=0;pointerEvents=0;fillColor=none;points=[[0,0.5],[1,0.5]];portConstraint=eastwest;top=0;left=0;right=0;bottom=1;fontSize=14;" parent="47ZSBUL9UgBAziskp561-17" vertex="1"><mxGeometry y="60" width="260" height="30" as="geometry"/></mxCell><mxCell id="47ZSBUL9UgBAziskp561-19" value="FK" style="shape=partialRectangle;overflow=hidden;connectable=0;fillColor=none;top=0;left=0;bottom=0;right=0;fontStyle=1;fontSize=14;" parent="47ZSBUL9UgBAziskp561-18" vertex="1"><mxGeometry width="30" height="30" as="geometry"><mxRectangle width="30" height="30" as="alternateBounds"/></mxGeometry></mxCell><mxCell id="47ZSBUL9UgBAziskp561-20" value="user_id uuid NOT NULL " style="shape=partialRectangle;overflow=hidden;connectable=0;fillColor=none;top=0;left=0;bottom=0;right=0;align=left;spacingLeft=6;fontStyle=5;fontSize=14;" parent="47ZSBUL9UgBAziskp561-18" vertex="1"><mxGeometry x="30" width="230" height="30" as="geometry"><mxRectangle width="230" height="30" as="alternateBounds"/></mxGeometry></mxCell><mxCell id="47ZSBUL9UgBAziskp561-92" style="shape=partialRectangle;collapsible=0;dropTarget=0;pointerEvents=0;fillColor=none;points=[[0,0.5],[1,0.5]];portConstraint=eastwest;top=0;left=0;right=0;bottom=1;fontSize=14;" parent="47ZSBUL9UgBAziskp561-17" vertex="1"><mxGeometry y="90" width="260" height="30" as="geometry"/></mxCell><mxCell id="47ZSBUL9UgBAziskp561-93" style="shape=partialRectangle;overflow=hidden;connectable=0;fillColor=none;top=0;left=0;bottom=0;right=0;fontStyle=1;fontSize=14;" parent="47ZSBUL9UgBAziskp561-92" vertex="1"><mxGeometry width="30" height="30" as="geometry"><mxRectangle width="30" height="30" as="alternateBounds"/></mxGeometry></mxCell><mxCell id="47ZSBUL9UgBAziskp561-94" value="name varchar(50) NOT NULL" style="shape=partialRectangle;overflow=hidden;connectable=0;fillColor=none;top=0;left=0;bottom=0;right=0;align=left;spacingLeft=6;fontStyle=0;fontSize=14;" parent="47ZSBUL9UgBAziskp561-92" vertex="1"><mxGeometry x="30" width="230" height="30" as="geometry"><mxRectangle width="230" height="30" as="alternateBounds"/></mxGeometry></mxCell><mxCell id="47ZSBUL9UgBAziskp561-38" style="shape=partialRectangle;collapsible=0;dropTarget=0;pointerEvents=0;fillColor=none;points=[[0,0.5],[1,0.5]];portConstraint=eastwest;top=0;left=0;right=0;bottom=1;fontSize=14;" parent="47ZSBUL9UgBAziskp561-17" vertex="1"><mxGeometry y="120" width="260" height="30" as="geometry"/></mxCell><mxCell id="47ZSBUL9UgBAziskp561-39" style="shape=partialRectangle;overflow=hidden;connectable=0;fillColor=none;top=0;left=0;bottom=0;right=0;fontStyle=1;fontSize=14;" parent="47ZSBUL9UgBAziskp561-38" vertex="1"><mxGeometry width="30" height="30" as="geometry"><mxRectangle width="30" height="30" as="alternateBounds"/></mxGeometry></mxCell><mxCell id="47ZSBUL9UgBAziskp561-40" value="updated_at timestamp NOT NULL" style="shape=partialRectangle;overflow=hidden;connectable=0;fillColor=none;top=0;left=0;bottom=0;right=0;align=left;spacingLeft=6;fontStyle=0;fontSize=14;" parent="47ZSBUL9UgBAziskp561-38" vertex="1"><mxGeometry x="30" width="230" height="30" as="geometry"><mxRectangle width="230" height="30" as="alternateBounds"/></mxGeometry></mxCell><mxCell id="47ZSBUL9UgBAziskp561-35" style="shape=partialRectangle;collapsible=0;dropTarget=0;pointerEvents=0;fillColor=none;points=[[0,0.5],[1,0.5]];portConstraint=eastwest;top=0;left=0;right=0;bottom=1;fontSize=14;" parent="47ZSBUL9UgBAziskp561-17" vertex="1"><mxGeometry y="150" width="260" height="30" as="geometry"/></mxCell><mxCell id="47ZSBUL9UgBAziskp561-36" style="shape=partialRectangle;overflow=hidden;connectable=0;fillColor=none;top=0;left=0;bottom=0;right=0;fontStyle=1;fontSize=14;" parent="47ZSBUL9UgBAziskp561-35" vertex="1"><mxGeometry width="30" height="30" as="geometry"><mxRectangle width="30" height="30" as="alternateBounds"/></mxGeometry></mxCell><mxCell id="47ZSBUL9UgBAziskp561-37" value="hash_login text" style="shape=partialRectangle;overflow=hidden;connectable=0;fillColor=none;top=0;left=0;bottom=0;right=0;align=left;spacingLeft=6;fontStyle=0;fontSize=14;" parent="47ZSBUL9UgBAziskp561-35" vertex="1"><mxGeometry x="30" width="230" height="30" as="geometry"><mxRectangle width="230" height="30" as="alternateBounds"/></mxGeometry></mxCell><mxCell id="47ZSBUL9UgBAziskp561-124" style="shape=partialRectangle;collapsible=0;dropTarget=0;pointerEvents=0;fillColor=none;points=[[0,0.5],[1,0.5]];portConstraint=eastwest;top=0;left=0;right=0;bottom=1;fontSize=14;" parent="47ZSBUL9UgBAziskp561-17" vertex="1"><mxGeometry y="180" width="260" height="30" as="geometry"/></mxCell><mxCell id="47ZSBUL9UgBAziskp561-125" style="shape=partialRectangle;overflow=hidden;connectable=0;fillColor=none;top=0;left=0;bottom=0;right=0;fontStyle=1;fontSize=14;" parent="47ZSBUL9UgBAziskp561-124" vertex="1"><mxGeometry width="30" height="30" as="geometry"><mxRectangle width="30" height="30" as="alternateBounds"/></mxGeometry></mxCell><mxCell id="47ZSBUL9UgBAziskp561-126" value="hash_password text" style="shape=partialRectangle;overflow=hidden;connectable=0;fillColor=none;top=0;left=0;bottom=0;right=0;align=left;spacingLeft=6;fontStyle=0;fontSize=14;" parent="47ZSBUL9UgBAziskp561-124" vertex="1"><mxGeometry x="30" width="230" height="30" as="geometry"><mxRectangle width="230" height="30" as="alternateBounds"/></mxGeometry></mxCell><mxCell id="47ZSBUL9UgBAziskp561-27" style="shape=partialRectangle;collapsible=0;dropTarget=0;pointerEvents=0;fillColor=none;points=[[0,0.5],[1,0.5]];portConstraint=eastwest;top=0;left=0;right=0;bottom=0;fontSize=14;" parent="47ZSBUL9UgBAziskp561-17" vertex="1"><mxGeometry y="210" width="260" height="30" as="geometry"/></mxCell><mxCell id="47ZSBUL9UgBAziskp561-28" style="shape=partialRectangle;overflow=hidden;connectable=0;fillColor=none;top=0;left=0;bottom=0;right=0;fontSize=14;" parent="47ZSBUL9UgBAziskp561-27" vertex="1"><mxGeometry width="30" height="30" as="geometry"><mxRectangle width="30" height="30" as="alternateBounds"/></mxGeometry></mxCell><mxCell id="47ZSBUL9UgBAziskp561-29" value="meta jsonb" style="shape=partialRectangle;overflow=hidden;connectable=0;fillColor=none;top=0;left=0;bottom=0;right=0;align=left;spacingLeft=6;fontSize=14;" parent="47ZSBUL9UgBAziskp561-27" vertex="1"><mxGeometry x="30" width="230" height="30" as="geometry"><mxRectangle width="230" height="30" as="alternateBounds"/></mxGeometry></mxCell><mxCell id="47ZSBUL9UgBAziskp561-42" value="" style="edgeStyle=entityRelationEdgeStyle;endArrow=ERzeroToMany;startArrow=ERone;endFill=1;startFill=0;exitX=1;exitY=0.5;exitDx=0;exitDy=0;entryX=1;entryY=0.5;entryDx=0;entryDy=0;fontSize=14;" parent="1" source="47ZSBUL9UgBAziskp561-18" target="C-vyLk0tnHw3VtMMgP7b-3" edge="1"><mxGeometry width="100" height="100" relative="1" as="geometry"><mxPoint x="390" y="175" as="sourcePoint"/><mxPoint x="460" y="180.0000000000001" as="targetPoint"/></mxGeometry></mxCell><mxCell id="47ZSBUL9UgBAziskp561-56" value="" style="edgeStyle=entityRelationEdgeStyle;endArrow=ERzeroToMany;startArrow=ERone;endFill=1;startFill=0;exitX=0;exitY=0.5;exitDx=0;exitDy=0;entryX=1;entryY=0.5;entryDx=0;entryDy=0;fontSize=14;" parent="1" source="C-vyLk0tnHw3VtMMgP7b-14" target="C-vyLk0tnHw3VtMMgP7b-3" edge="1"><mxGeometry width="100" height="100" relative="1" as="geometry"><mxPoint x="710" y="355" as="sourcePoint"/><mxPoint x="710" y="175" as="targetPoint"/></mxGeometry></mxCell><mxCell id="47ZSBUL9UgBAziskp561-57" value="cards" style="shape=table;startSize=30;container=1;collapsible=1;childLayout=tableLayout;fixedRows=1;rowLines=0;fontStyle=1;align=center;resizeLast=1;fontSize=14;" parent="1" vertex="1"><mxGeometry x="805" y="-150" width="280" height="300" as="geometry"/></mxCell><mxCell id="47ZSBUL9UgBAziskp561-82" style="shape=partialRectangle;collapsible=0;dropTarget=0;pointerEvents=0;fillColor=none;points=[[0,0.5],[1,0.5]];portConstraint=eastwest;top=0;left=0;right=0;bottom=1;fontSize=14;" parent="47ZSBUL9UgBAziskp561-57" vertex="1"><mxGeometry y="30" width="280" height="30" as="geometry"/></mxCell><mxCell id="47ZSBUL9UgBAziskp561-83" value="PK" style="shape=partialRectangle;overflow=hidden;connectable=0;fillColor=none;top=0;left=0;bottom=0;right=0;fontStyle=1;fontSize=14;" parent="47ZSBUL9UgBAziskp561-82" vertex="1"><mxGeometry width="30" height="30" as="geometry"><mxRectangle width="30" height="30" as="alternateBounds"/></mxGeometry></mxCell><mxCell id="47ZSBUL9UgBAziskp561-84" value="card_id int NOT NULL" style="shape=partialRectangle;overflow=hidden;connectable=0;fillColor=none;top=0;left=0;bottom=0;right=0;align=left;spacingLeft=6;fontStyle=5;fontSize=14;" parent="47ZSBUL9UgBAziskp561-82" vertex="1"><mxGeometry x="30" width="250" height="30" as="geometry"><mxRectangle width="250" height="30" as="alternateBounds"/></mxGeometry></mxCell><mxCell id="47ZSBUL9UgBAziskp561-58" value="" style="shape=partialRectangle;collapsible=0;dropTarget=0;pointerEvents=0;fillColor=none;points=[[0,0.5],[1,0.5]];portConstraint=eastwest;top=0;left=0;right=0;bottom=1;fontSize=14;" parent="47ZSBUL9UgBAziskp561-57" vertex="1"><mxGeometry y="60" width="280" height="30" as="geometry"/></mxCell><mxCell id="47ZSBUL9UgBAziskp561-59" value="FK" style="shape=partialRectangle;overflow=hidden;connectable=0;fillColor=none;top=0;left=0;bottom=0;right=0;fontStyle=1;fontSize=14;" parent="47ZSBUL9UgBAziskp561-58" vertex="1"><mxGeometry width="30" height="30" as="geometry"><mxRectangle width="30" height="30" as="alternateBounds"/></mxGeometry></mxCell><mxCell id="47ZSBUL9UgBAziskp561-60" value="user_id uuid NOT NULL" style="shape=partialRectangle;overflow=hidden;connectable=0;fillColor=none;top=0;left=0;bottom=0;right=0;align=left;spacingLeft=6;fontStyle=5;fontSize=14;" parent="47ZSBUL9UgBAziskp561-58" vertex="1"><mxGeometry x="30" width="250" height="30" as="geometry"><mxRectangle width="250" height="30" as="alternateBounds"/></mxGeometry></mxCell><mxCell id="47ZSBUL9UgBAziskp561-95" style="shape=partialRectangle;collapsible=0;dropTarget=0;pointerEvents=0;fillColor=none;points=[[0,0.5],[1,0.5]];portConstraint=eastwest;top=0;left=0;right=0;bottom=1;fontSize=14;" parent="47ZSBUL9UgBAziskp561-57" vertex="1"><mxGeometry y="90" width="280" height="30" as="geometry"/></mxCell><mxCell id="47ZSBUL9UgBAziskp561-96" style="shape=partialRectangle;overflow=hidden;connectable=0;fillColor=none;top=0;left=0;bottom=0;right=0;fontStyle=1;fontSize=14;" parent="47ZSBUL9UgBAziskp561-95" vertex="1"><mxGeometry width="30" height="30" as="geometry"><mxRectangle width="30" height="30" as="alternateBounds"/></mxGeometry></mxCell><mxCell id="47ZSBUL9UgBAziskp561-97" value="name varchar(50) NOT NULL" style="shape=partialRectangle;overflow=hidden;connectable=0;fillColor=none;top=0;left=0;bottom=0;right=0;align=left;spacingLeft=6;fontStyle=0;fontSize=14;" parent="47ZSBUL9UgBAziskp561-95" vertex="1"><mxGeometry x="30" width="250" height="30" as="geometry"><mxRectangle width="250" height="30" as="alternateBounds"/></mxGeometry></mxCell><mxCell id="47ZSBUL9UgBAziskp561-61" style="shape=partialRectangle;collapsible=0;dropTarget=0;pointerEvents=0;fillColor=none;points=[[0,0.5],[1,0.5]];portConstraint=eastwest;top=0;left=0;right=0;bottom=1;fontSize=14;" parent="47ZSBUL9UgBAziskp561-57" vertex="1"><mxGeometry y="120" width="280" height="30" as="geometry"/></mxCell><mxCell id="47ZSBUL9UgBAziskp561-62" style="shape=partialRectangle;overflow=hidden;connectable=0;fillColor=none;top=0;left=0;bottom=0;right=0;fontStyle=1;fontSize=14;" parent="47ZSBUL9UgBAziskp561-61" vertex="1"><mxGeometry width="30" height="30" as="geometry"><mxRectangle width="30" height="30" as="alternateBounds"/></mxGeometry></mxCell><mxCell id="47ZSBUL9UgBAziskp561-63" value="hash_card_number text NOT NULL" style="shape=partialRectangle;overflow=hidden;connectable=0;fillColor=none;top=0;left=0;bottom=0;right=0;align=left;spacingLeft=6;fontStyle=0;fontSize=14;" parent="47ZSBUL9UgBAziskp561-61" vertex="1"><mxGeometry x="30" width="250" height="30" as="geometry"><mxRectangle width="250" height="30" as="alternateBounds"/></mxGeometry></mxCell><mxCell id="47ZSBUL9UgBAziskp561-64" style="shape=partialRectangle;collapsible=0;dropTarget=0;pointerEvents=0;fillColor=none;points=[[0,0.5],[1,0.5]];portConstraint=eastwest;top=0;left=0;right=0;bottom=1;fontSize=14;" parent="47ZSBUL9UgBAziskp561-57" vertex="1"><mxGeometry y="150" width="280" height="30" as="geometry"/></mxCell><mxCell id="47ZSBUL9UgBAziskp561-65" style="shape=partialRectangle;overflow=hidden;connectable=0;fillColor=none;top=0;left=0;bottom=0;right=0;fontStyle=1;fontSize=14;" parent="47ZSBUL9UgBAziskp561-64" vertex="1"><mxGeometry width="30" height="30" as="geometry"><mxRectangle width="30" height="30" as="alternateBounds"/></mxGeometry></mxCell><mxCell id="47ZSBUL9UgBAziskp561-66" value="expiry_date timestamp" style="shape=partialRectangle;overflow=hidden;connectable=0;fillColor=none;top=0;left=0;bottom=0;right=0;align=left;spacingLeft=6;fontStyle=0;fontSize=14;" parent="47ZSBUL9UgBAziskp561-64" vertex="1"><mxGeometry x="30" width="250" height="30" as="geometry"><mxRectangle width="250" height="30" as="alternateBounds"/></mxGeometry></mxCell><mxCell id="47ZSBUL9UgBAziskp561-73" style="shape=partialRectangle;collapsible=0;dropTarget=0;pointerEvents=0;fillColor=none;points=[[0,0.5],[1,0.5]];portConstraint=eastwest;top=0;left=0;right=0;bottom=1;fontSize=14;" parent="47ZSBUL9UgBAziskp561-57" vertex="1"><mxGeometry y="180" width="280" height="30" as="geometry"/></mxCell><mxCell id="47ZSBUL9UgBAziskp561-74" style="shape=partialRectangle;overflow=hidden;connectable=0;fillColor=none;top=0;left=0;bottom=0;right=0;fontStyle=1;fontSize=14;" parent="47ZSBUL9UgBAziskp561-73" vertex="1"><mxGeometry width="30" height="30" as="geometry"><mxRectangle width="30" height="30" as="alternateBounds"/></mxGeometry></mxCell><mxCell id="47ZSBUL9UgBAziskp561-75" value="hash_card_holder text" style="shape=partialRectangle;overflow=hidden;connectable=0;fillColor=none;top=0;left=0;bottom=0;right=0;align=left;spacingLeft=6;fontStyle=0;fontSize=14;" parent="47ZSBUL9UgBAziskp561-73" vertex="1"><mxGeometry x="30" width="250" height="30" as="geometry"><mxRectangle width="250" height="30" as="alternateBounds"/></mxGeometry></mxCell><mxCell id="47ZSBUL9UgBAziskp561-76" style="shape=partialRectangle;collapsible=0;dropTarget=0;pointerEvents=0;fillColor=none;points=[[0,0.5],[1,0.5]];portConstraint=eastwest;top=0;left=0;right=0;bottom=1;fontSize=14;" parent="47ZSBUL9UgBAziskp561-57" vertex="1"><mxGeometry y="210" width="280" height="30" as="geometry"/></mxCell><mxCell id="47ZSBUL9UgBAziskp561-77" style="shape=partialRectangle;overflow=hidden;connectable=0;fillColor=none;top=0;left=0;bottom=0;right=0;fontStyle=1;fontSize=14;" parent="47ZSBUL9UgBAziskp561-76" vertex="1"><mxGeometry width="30" height="30" as="geometry"><mxRectangle width="30" height="30" as="alternateBounds"/></mxGeometry></mxCell><mxCell id="47ZSBUL9UgBAziskp561-78" value="hash_cvv text" style="shape=partialRectangle;overflow=hidden;connectable=0;fillColor=none;top=0;left=0;bottom=0;right=0;align=left;spacingLeft=6;fontStyle=0;fontSize=14;" parent="47ZSBUL9UgBAziskp561-76" vertex="1"><mxGeometry x="30" width="250" height="30" as="geometry"><mxRectangle width="250" height="30" as="alternateBounds"/></mxGeometry></mxCell><mxCell id="47ZSBUL9UgBAziskp561-127" style="shape=partialRectangle;collapsible=0;dropTarget=0;pointerEvents=0;fillColor=none;points=[[0,0.5],[1,0.5]];portConstraint=eastwest;top=0;left=0;right=0;bottom=1;fontSize=14;" parent="47ZSBUL9UgBAziskp561-57" vertex="1"><mxGeometry y="240" width="280" height="30" as="geometry"/></mxCell><mxCell id="47ZSBUL9UgBAziskp561-128" style="shape=partialRectangle;overflow=hidden;connectable=0;fillColor=none;top=0;left=0;bottom=0;right=0;fontStyle=1;fontSize=14;" parent="47ZSBUL9UgBAziskp561-127" vertex="1"><mxGeometry width="30" height="30" as="geometry"><mxRectangle width="30" height="30" as="alternateBounds"/></mxGeometry></mxCell><mxCell id="47ZSBUL9UgBAziskp561-129" value="updated_at timestamp NOT NULL" style="shape=partialRectangle;overflow=hidden;connectable=0;fillColor=none;top=0;left=0;bottom=0;right=0;align=left;spacingLeft=6;fontStyle=0;fontSize=14;" parent="47ZSBUL9UgBAziskp561-127" vertex="1"><mxGeometry x="30" width="250" height="30" as="geometry"><mxRectangle width="250" height="30" as="alternateBounds"/></mxGeometry></mxCell><mxCell id="47ZSBUL9UgBAziskp561-67" value="" style="shape=partialRectangle;collapsible=0;dropTarget=0;pointerEvents=0;fillColor=none;points=[[0,0.5],[1,0.5]];portConstraint=eastwest;top=0;left=0;right=0;bottom=0;fontSize=14;" parent="47ZSBUL9UgBAziskp561-57" vertex="1"><mxGeometry y="270" width="280" height="30" as="geometry"/></mxCell><mxCell id="47ZSBUL9UgBAziskp561-68" value="" style="shape=partialRectangle;overflow=hidden;connectable=0;fillColor=none;top=0;left=0;bottom=0;right=0;fontSize=14;" parent="47ZSBUL9UgBAziskp561-67" vertex="1"><mxGeometry width="30" height="30" as="geometry"><mxRectangle width="30" height="30" as="alternateBounds"/></mxGeometry></mxCell><mxCell id="47ZSBUL9UgBAziskp561-69" value="meta jsonb" style="shape=partialRectangle;overflow=hidden;connectable=0;fillColor=none;top=0;left=0;bottom=0;right=0;align=left;spacingLeft=6;fontSize=14;" parent="47ZSBUL9UgBAziskp561-67" vertex="1"><mxGeometry x="30" width="250" height="30" as="geometry"><mxRectangle width="250" height="30" as="alternateBounds"/></mxGeometry></mxCell><mxCell id="47ZSBUL9UgBAziskp561-91" value="" style="edgeStyle=entityRelationEdgeStyle;endArrow=ERzeroToMany;startArrow=ERone;endFill=1;startFill=0;entryX=1;entryY=0.5;entryDx=0;entryDy=0;fontSize=14;" parent="1" source="47ZSBUL9UgBAziskp561-58" target="C-vyLk0tnHw3VtMMgP7b-3" edge="1"><mxGeometry width="100" height="100" relative="1" as="geometry"><mxPoint x="815" y="435" as="sourcePoint"/><mxPoint x="710" y="175" as="targetPoint"/></mxGeometry></mxCell><mxCell id="47ZSBUL9UgBAziskp561-98" value="binary_files" style="shape=table;startSize=30;container=1;collapsible=1;childLayout=tableLayout;fixedRows=1;rowLines=0;fontStyle=1;align=center;resizeLast=1;fontSize=14;" parent="1" vertex="1"><mxGeometry x="450" y="-150" width="250" height="210" as="geometry"/></mxCell><mxCell id="47ZSBUL9UgBAziskp561-99" style="shape=partialRectangle;collapsible=0;dropTarget=0;pointerEvents=0;fillColor=none;points=[[0,0.5],[1,0.5]];portConstraint=eastwest;top=0;left=0;right=0;bottom=1;fontSize=14;" parent="47ZSBUL9UgBAziskp561-98" vertex="1"><mxGeometry y="30" width="250" height="30" as="geometry"/></mxCell><mxCell id="47ZSBUL9UgBAziskp561-100" value="PK" style="shape=partialRectangle;overflow=hidden;connectable=0;fillColor=none;top=0;left=0;bottom=0;right=0;fontStyle=1;fontSize=14;" parent="47ZSBUL9UgBAziskp561-99" vertex="1"><mxGeometry width="30" height="30" as="geometry"><mxRectangle width="30" height="30" as="alternateBounds"/></mxGeometry></mxCell><mxCell id="47ZSBUL9UgBAziskp561-101" value="file_id int NOT NULL" style="shape=partialRectangle;overflow=hidden;connectable=0;fillColor=none;top=0;left=0;bottom=0;right=0;align=left;spacingLeft=6;fontStyle=5;fontSize=14;" parent="47ZSBUL9UgBAziskp561-99" vertex="1"><mxGeometry x="30" width="220" height="30" as="geometry"><mxRectangle width="220" height="30" as="alternateBounds"/></mxGeometry></mxCell><mxCell id="47ZSBUL9UgBAziskp561-102" value="" style="shape=partialRectangle;collapsible=0;dropTarget=0;pointerEvents=0;fillColor=none;points=[[0,0.5],[1,0.5]];portConstraint=eastwest;top=0;left=0;right=0;bottom=1;fontSize=14;" parent="47ZSBUL9UgBAziskp561-98" vertex="1"><mxGeometry y="60" width="250" height="30" as="geometry"/></mxCell><mxCell id="47ZSBUL9UgBAziskp561-103" value="FK" style="shape=partialRectangle;overflow=hidden;connectable=0;fillColor=none;top=0;left=0;bottom=0;right=0;fontStyle=1;fontSize=14;" parent="47ZSBUL9UgBAziskp561-102" vertex="1"><mxGeometry width="30" height="30" as="geometry"><mxRectangle width="30" height="30" as="alternateBounds"/></mxGeometry></mxCell><mxCell id="47ZSBUL9UgBAziskp561-104" value="user_id uuid NOT NULL" style="shape=partialRectangle;overflow=hidden;connectable=0;fillColor=none;top=0;left=0;bottom=0;right=0;align=left;spacingLeft=6;fontStyle=5;fontSize=14;" parent="47ZSBUL9UgBAziskp561-102" vertex="1"><mxGeometry x="30" width="220" height="30" as="geometry"><mxRectangle width="220" height="30" as="alternateBounds"/></mxGeometry></mxCell><mxCell id="47ZSBUL9UgBAziskp561-105" style="shape=partialRectangle;collapsible=0;dropTarget=0;pointerEvents=0;fillColor=none;points=[[0,0.5],[1,0.5]];portConstraint=eastwest;top=0;left=0;right=0;bottom=1;fontSize=14;" parent="47ZSBUL9UgBAziskp561-98" vertex="1"><mxGeometry y="90" width="250" height="30" as="geometry"/></mxCell><mxCell id="47ZSBUL9UgBAziskp561-106" style="shape=partialRectangle;overflow=hidden;connectable=0;fillColor=none;top=0;left=0;bottom=0;right=0;fontStyle=1;fontSize=14;" parent="47ZSBUL9UgBAziskp561-105" vertex="1"><mxGeometry width="30" height="30" as="geometry"><mxRectangle width="30" height="30" as="alternateBounds"/></mxGeometry></mxCell><mxCell id="47ZSBUL9UgBAziskp561-107" value="name varchar(50) NOT NULL" style="shape=partialRectangle;overflow=hidden;connectable=0;fillColor=none;top=0;left=0;bottom=0;right=0;align=left;spacingLeft=6;fontStyle=0;fontSize=14;" parent="47ZSBUL9UgBAziskp561-105" vertex="1"><mxGeometry x="30" width="220" height="30" as="geometry"><mxRectangle width="220" height="30" as="alternateBounds"/></mxGeometry></mxCell><mxCell id="47ZSBUL9UgBAziskp561-108" style="shape=partialRectangle;collapsible=0;dropTarget=0;pointerEvents=0;fillColor=none;points=[[0,0.5],[1,0.5]];portConstraint=eastwest;top=0;left=0;right=0;bottom=1;fontSize=14;" parent="47ZSBUL9UgBAziskp561-98" vertex="1"><mxGeometry y="120" width="250" height="30" as="geometry"/></mxCell><mxCell id="47ZSBUL9UgBAziskp561-109" style="shape=partialRectangle;overflow=hidden;connectable=0;fillColor=none;top=0;left=0;bottom=0;right=0;fontStyle=1;fontSize=14;" parent="47ZSBUL9UgBAziskp561-108" vertex="1"><mxGeometry width="30" height="30" as="geometry"><mxRectangle width="30" height="30" as="alternateBounds"/></mxGeometry></mxCell><mxCell id="47ZSBUL9UgBAziskp561-110" value="hash_file text" style="shape=partialRectangle;overflow=hidden;connectable=0;fillColor=none;top=0;left=0;bottom=0;right=0;align=left;spacingLeft=6;fontStyle=0;fontSize=14;" parent="47ZSBUL9UgBAziskp561-108" vertex="1"><mxGeometry x="30" width="220" height="30" as="geometry"><mxRectangle width="220" height="30" as="alternateBounds"/></mxGeometry></mxCell><mxCell id="47ZSBUL9UgBAziskp561-118" style="shape=partialRectangle;collapsible=0;dropTarget=0;pointerEvents=0;fillColor=none;points=[[0,0.5],[1,0.5]];portConstraint=eastwest;top=0;left=0;right=0;bottom=1;fontSize=14;" parent="47ZSBUL9UgBAziskp561-98" vertex="1"><mxGeometry y="150" width="250" height="30" as="geometry"/></mxCell><mxCell id="47ZSBUL9UgBAziskp561-119" style="shape=partialRectangle;overflow=hidden;connectable=0;fillColor=none;top=0;left=0;bottom=0;right=0;fontStyle=1;fontSize=14;" parent="47ZSBUL9UgBAziskp561-118" vertex="1"><mxGeometry width="30" height="30" as="geometry"><mxRectangle width="30" height="30" as="alternateBounds"/></mxGeometry></mxCell><mxCell id="47ZSBUL9UgBAziskp561-120" value="updated_at timestamp NOT NULL" style="shape=partialRectangle;overflow=hidden;connectable=0;fillColor=none;top=0;left=0;bottom=0;right=0;align=left;spacingLeft=6;fontStyle=0;fontSize=14;" parent="47ZSBUL9UgBAziskp561-118" vertex="1"><mxGeometry x="30" width="220" height="30" as="geometry"><mxRectangle width="220" height="30" as="alternateBounds"/></mxGeometry></mxCell><mxCell id="47ZSBUL9UgBAziskp561-111" value="" style="shape=partialRectangle;collapsible=0;dropTarget=0;pointerEvents=0;fillColor=none;points=[[0,0.5],[1,0.5]];portConstraint=eastwest;top=0;left=0;right=0;bottom=0;fontSize=14;" parent="47ZSBUL9UgBAziskp561-98" vertex="1"><mxGeometry y="180" width="250" height="30" as="geometry"/></mxCell><mxCell id="47ZSBUL9UgBAziskp561-112" value="" style="shape=partialRectangle;overflow=hidden;connectable=0;fillColor=none;top=0;left=0;bottom=0;right=0;fontSize=14;" parent="47ZSBUL9UgBAziskp561-111" vertex="1"><mxGeometry width="30" height="30" as="geometry"><mxRectangle width="30" height="30" as="alternateBounds"/></mxGeometry></mxCell><mxCell id="47ZSBUL9UgBAziskp561-113" value="meta jsonb" style="shape=partialRectangle;overflow=hidden;connectable=0;fillColor=none;top=0;left=0;bottom=0;right=0;align=left;spacingLeft=6;fontSize=14;" parent="47ZSBUL9UgBAziskp561-111" vertex="1"><mxGeometry x="30" width="220" height="30" as="geometry"><mxRectangle width="220" height="30" as="alternateBounds"/></mxGeometry></mxCell><mxCell id="47ZSBUL9UgBAziskp561-114" value="" style="edgeStyle=entityRelationEdgeStyle;endArrow=ERzeroToMany;startArrow=ERone;endFill=1;startFill=0;entryX=1;entryY=0.5;entryDx=0;entryDy=0;fontSize=14;" parent="1" source="47ZSBUL9UgBAziskp561-102" target="C-vyLk0tnHw3VtMMgP7b-3" edge="1"><mxGeometry width="100" height="100" relative="1" as="geometry"><mxPoint x="815" y="65" as="sourcePoint"/><mxPoint x="710" y="175" as="targetPoint"/></mxGeometry></mxCell></root></mxGraphModel></diagram></mxfile>